PathFileType	4	(X/Y/Z)	OpenSim_Sub08_CSBaseline_Magnet.trc
DataRate	CameraRate	NumFrames	NumMarkers	Units	OrigDataRate	OrigDataStartFrame	OrigNumFrames
100	100	26	8	m	100	3414	5461
Frame#	Time	torso_imu_offset_imu	pelvis_imu_offset_imu	tibia_r_imu_offset_imu	femur_r_imu_offset_imu	tibia_l_imu_offset_imu	femur_l_imu_offset_imu	toes_r_imu_offset_imu	toes_l_imu_offset_imu
				X1	Y1	Z1	X2	Y2	Z2	X3	Y3	Z3	X4	Y4	Z4	X5	Y5	Z5	X6	Y6	Z6	X7	Y7	Z7	X8		Y8	Z8	

3414	34.13000000	-0.93725600	-0.12695300	0.11377000	-0.66577100	0.18945300	-0.65161100	-0.34497100	-0.74292000	-0.15747100	-0.85888700	-0.11523400	-0.08789100	-0.65747100	0.37866200	0.32373000	-0.56665000	-0.05542000	0.37451200	-0.56860400	-0.57983400	-0.16528300	-0.71142600	-0.21362300	-0.36108400
3415	34.14000000	-0.93725600	-0.12695300	0.11157200	-0.66357400	0.18725600	-0.65161100	-0.37915000	-0.72412100	-0.13574200	-0.85913100	-0.10693400	-0.08837900	-0.65087900	0.38085900	0.32373000	-0.56030300	-0.04443400	0.37670900	-0.57348600	-0.54711900	-0.17822300	-0.70654300	-0.22460900	-0.35644500
3416	34.15000000	-0.93750000	-0.12255900	0.11132800	-0.66357400	0.19165000	-0.65405300	-0.40649400	-0.72216800	-0.10253900	-0.86132800	-0.10302700	-0.08154300	-0.64648400	0.38525400	0.32104500	-0.55810500	-0.04443400	0.38354500	-0.57836900	-0.52270500	-0.19531200	-0.70922900	-0.21362300	-0.35424800
3417	34.16000000	-0.93505900	-0.13525400	0.10961900	-0.65502900	0.18945300	-0.64941400	-0.44043000	-0.70776400	-0.08520500	-0.86547900	-0.10083000	-0.08862300	-0.64892600	0.38964800	0.32543900	-0.55835000	-0.04003900	0.38110400	-0.58740200	-0.49218800	-0.21240200	-0.70922900	-0.21362300	-0.35644500
3418	34.17000000	-0.93920900	-0.13330100	0.11621100	-0.65966800	0.19995100	-0.65210000	-0.46826200	-0.69116200	-0.05224600	-0.86352500	-0.09472700	-0.09106400	-0.64453100	0.39184600	0.32959000	-0.55444300	-0.02710000	0.38549800	-0.59643600	-0.46362300	-0.23168900	-0.71142600	-0.21582000	-0.35424800
3419	34.18000000	-0.93725600	-0.13110400	0.11377000	-0.65966800	0.20214800	-0.65210000	-0.50219700	-0.67871100	-0.04150400	-0.86157200	-0.09252900	-0.08886700	-0.63793900	0.40063500	0.33129900	-0.54760700	-0.02905300	0.38549800	-0.60327100	-0.43920900	-0.24462900	-0.70703100	-0.21582000	-0.35424800
3420	34.19000000	-0.93481400	-0.13745100	0.11401400	-0.66186500	0.20410200	-0.65454100	-0.52392600	-0.65795900	-0.02441400	-0.86377000	-0.09252900	-0.09106400	-0.63598600	0.40722700	0.32446300	-0.54785200	-0.02685500	0.38549800	-0.61035200	-0.41284200	-0.25756800	-0.71606400	-0.21142600	-0.35424800
3421	34.20000000	-0.93261700	-0.13964800	0.11865200	-0.65722700	0.19799800	-0.65893600	-0.55371100	-0.63916000	-0.02294900	-0.86181600	-0.08837900	-0.07983400	-0.63403300	0.41381800	0.32617200	-0.55029300	-0.02050800	0.38549800	-0.61889600	-0.39843800	-0.27661100	-0.72705100	-0.21386700	-0.35424800
3422	34.21000000	-0.92822300	-0.14794900	0.11889600	-0.65527300	0.20214800	-0.65673800	-0.58178700	-0.61621100	-0.03027300	-0.86377000	-0.08642600	-0.08911100	-0.63427700	0.42260700	0.32592800	-0.54614300	-0.01171900	0.38745100	-0.61938500	-0.37793000	-0.29980500	-0.72045900	-0.21167000	-0.35205100
3423	34.22000000	-0.93261700	-0.14599600	0.12109400	-0.65527300	0.19799800	-0.65893600	-0.60376000	-0.58496100	-0.03808600	-0.86181600	-0.08837900	-0.08447300	-0.62524400	0.42480500	0.33227500	-0.53955100	-0.00952100	0.38964800	-0.62402300	-0.35961900	-0.32299800	-0.71826200	-0.21142600	-0.35644500
3424	34.23000000	-0.92822300	-0.14575200	0.12548800	-0.65527300	0.19799800	-0.66137700	-0.63183600	-0.55786100	-0.04370100	-0.86377000	-0.09252900	-0.09350600	-0.62109400	0.43579100	0.32959000	-0.54199200	-0.00512700	0.39184600	-0.62036100	-0.34301800	-0.35449200	-0.72070300	-0.20922900	-0.36108400
3425	34.24000000	-0.93261700	-0.14599600	0.12988300	-0.65307600	0.19580100	-0.65649400	-0.66015600	-0.52636700	-0.04467800	-0.86547900	-0.09887700	-0.09326200	-0.61669900	0.43359400	0.33178700	-0.54443400	0.00122100	0.38964800	-0.61254900	-0.31616200	-0.38623000	-0.72509800	-0.20947300	-0.35205100
3426	34.25000000	-0.92797900	-0.15210000	0.12793000	-0.65698200	0.18969700	-0.66552700	-0.68627900	-0.49316400	-0.04809600	-0.86328100	-0.10278300	-0.10449200	-0.61010700	0.44458000	0.33105500	-0.54223600	0.00561500	0.39624000	-0.60278300	-0.29150400	-0.41772500	-0.72290000	-0.20703100	-0.36328100
3427	34.26000000	-0.93432600	-0.15429700	0.13232400	-0.65698200	0.18530300	-0.66552700	-0.70434600	-0.45752000	-0.06054700	-0.86132800	-0.10278300	-0.10229500	-0.60595700	0.44897500	0.33544900	-0.53564500	0.00366200	0.39184600	-0.59277300	-0.27075200	-0.44921900	-0.72509800	-0.20947300	-0.36108400
3428	34.27000000	-0.92602500	-0.15014600	0.13012700	-0.65258800	0.18750000	-0.66796900	-0.72583000	-0.43676800	-0.06347700	-0.86108400	-0.10913100	-0.09521500	-0.60156200	0.45556600	0.33056600	-0.53588900	0.01440400	0.38720700	-0.58496100	-0.24804700	-0.47460900	-0.72509800	-0.20727500	-0.35424800
3429	34.28000000	-0.92602500	-0.15210000	0.13452100	-0.65039100	0.18115200	-0.66528300	-0.73535200	-0.40332000	-0.07128900	-0.85888700	-0.11523400	-0.09936500	-0.60620100	0.45776400	0.32812500	-0.53588900	0.01440400	0.38720700	-0.57519500	-0.22949200	-0.49560500	-0.72753900	-0.20507800	-0.35888700
3430	34.29000000	-0.92382800	-0.15210000	0.13452100	-0.65258800	0.18530300	-0.66772500	-0.75708000	-0.38452100	-0.07641600	-0.85253900	-0.11718800	-0.10620100	-0.59301800	0.46460000	0.32763700	-0.53173800	0.01879900	0.39160200	-0.56738300	-0.20678700	-0.52514600	-0.73877000	-0.20068400	-0.35668900
3431	34.30000000	-0.92578100	-0.15429700	0.13696300	-0.64819300	0.18554700	-0.67016600	-0.76001000	-0.35742200	-0.06835900	-0.85839800	-0.12548800	-0.10815400	-0.59326200	0.47314500	0.33618200	-0.52954100	0.02099600	0.39843800	-0.54711900	-0.17968800	-0.54418900	-0.73217800	-0.19848600	-0.36108400
3432	34.31000000	-0.91943400	-0.15625000	0.13696300	-0.65429700	0.17285200	-0.66723600	-0.77343800	-0.33032200	-0.07373000	-0.85009800	-0.12768600	-0.11499000	-0.58447300	0.48193400	0.33789100	-0.52978500	0.02758800	0.39843800	-0.54345700	-0.15918000	-0.56103500	-0.73657200	-0.20068400	-0.35668900
3433	34.32000000	-0.92797900	-0.15210000	0.14111300	-0.65014600	0.17700200	-0.66503900	-0.78271500	-0.30737300	-0.07006800	-0.85180700	-0.13793900	-0.11694300	-0.58252000	0.48852500	0.33520500	-0.52978500	0.02978500	0.39819300	-0.52929700	-0.14257800	-0.57592800	-0.74340800	-0.19848600	-0.35449200
3434	34.33000000	-0.92578100	-0.15844700	0.14355500	-0.65429700	0.17285200	-0.66967800	-0.78540000	-0.29272500	-0.06835900	-0.84960900	-0.13989300	-0.12133800	-0.57592800	0.49316400	0.33496100	-0.52563500	0.03198200	0.39379900	-0.52148400	-0.12207000	-0.58447300	-0.74585000	-0.19409200	-0.35205100
3435	34.34000000	-0.92578100	-0.16064500	0.14379900	-0.65454100	0.17480500	-0.66284200	-0.79638700	-0.27807600	-0.06884800	-0.84960900	-0.14404300	-0.12353500	-0.57373000	0.49755900	0.33252000	-0.52783200	0.03833000	0.40258800	-0.51171900	-0.09936500	-0.59741200	-0.75268600	-0.19213900	-0.34985400
3436	34.35000000	-0.92797900	-0.15844700	0.14135700	-0.65844700	0.16650400	-0.66479500	-0.80297900	-0.26977500	-0.06933600	-0.85131800	-0.15454100	-0.11865200	-0.56274400	0.50195300	0.33886700	-0.52148400	0.04492200	0.40722700	-0.51001000	-0.08300800	-0.60180700	-0.75488300	-0.18994100	-0.34545900
3437	34.36000000	-0.92797900	-0.15429700	0.14575200	-0.65649400	0.16845700	-0.65551800	-0.80102500	-0.26342800	-0.07397500	-0.84497100	-0.15234400	-0.12085000	-0.56298800	0.51293900	0.34057600	-0.51733400	0.04931600	0.40039100	-0.50830100	-0.07080100	-0.60180700	-0.75244100	-0.19433600	-0.34326200
3438	34.37000000	-0.92358400	-0.15649400	0.14575200	-0.65429700	0.16845700	-0.66259800	-0.80127000	-0.25512700	-0.06982400	-0.84912100	-0.15454100	-0.12548800	-0.55639600	0.51953100	0.33789100	-0.51757800	0.05590800	0.40014600	-0.50634800	-0.06054700	-0.60839800	-0.76611300	-0.18994100	-0.34326200
3439	34.38000000	-0.92334000	-0.16479500	0.14184600	-0.65649400	0.17285200	-0.66040000	-0.80151400	-0.25097700	-0.07202100	-0.84057600	-0.15844700	-0.12988300	-0.55224600	0.52612300	0.33764600	-0.51562500	0.06250000	0.39794900	-0.50659200	-0.05639600	-0.60839800	-0.76611300	-0.19213900	-0.33422900
